<svg width="32" height="32" viewBox="0 0 32 32" fill="none" xmlns="http://www.w3.org/2000/svg">
<path d="M2.66669 16.6665C2.66739 13.5971 3.67676 10.613 5.53946 8.17351C7.40216 5.73397 10.015 3.97419 12.9757 3.16498C15.9365 2.35578 19.0811 2.542 21.9257 3.69499C24.7703 4.84799 27.1571 6.90384 28.7189 9.54617C30.2806 12.1885 30.9308 15.2708 30.5692 18.3188C30.2076 21.3668 28.8544 24.2115 26.7178 26.4151C24.5812 28.6188 21.7797 30.0591 18.7443 30.5146C15.7089 30.9701 12.608 30.4155 9.91868 28.9361L4.47549 30.5937C4.2327 30.6676 3.97438 30.6742 3.72815 30.6127C3.48192 30.5511 3.25705 30.4238 3.07758 30.2444C2.89812 30.0649 2.77081 29.84 2.70929 29.5938C2.64776 29.3476 2.65433 29.0892 2.72829 28.8465L4.38589 23.3949C3.25683 21.332 2.66557 19.0181 2.66669 16.6665ZM16.6667 5.46648C14.6785 5.46631 12.7261 5.99538 11.0101 6.99935C9.294 8.00332 7.87612 9.446 6.90204 11.1792C5.92797 12.9124 5.43282 14.8737 5.46745 16.8615C5.50208 18.8494 6.06524 20.7922 7.09909 22.4905C7.20171 22.6592 7.26749 22.8477 7.2921 23.0436C7.31671 23.2395 7.2996 23.4384 7.24189 23.6273L6.16949 27.1525L9.68908 26.0801C9.87853 26.0223 10.0781 26.0055 10.2745 26.0306C10.471 26.0557 10.6598 26.1222 10.8287 26.2257C12.3048 27.1269 13.9695 27.674 15.6925 27.8242C17.4154 27.9743 19.1497 27.7234 20.7595 27.0912C22.3692 26.4589 23.8107 25.4624 24.9709 24.1799C26.1311 22.8973 26.9785 21.3634 27.4467 19.6986C27.9149 18.0337 27.9912 16.283 27.6695 14.5837C27.3479 12.8844 26.6371 11.2827 25.5929 9.90402C24.5487 8.52539 23.1994 7.40731 21.6507 6.63742C20.1021 5.86753 18.3961 5.46675 16.6667 5.46648Z" fill="black"/>
</svg>
