<svg width="16" height="16" viewBox="0 0 16 16" fill="none" xmlns="http://www.w3.org/2000/svg">
<path fill-rule="evenodd" clip-rule="evenodd" d="M15.4286 1.14286H13.7143V0H12.5714V1.14286H3.42857V0H2.28571V1.14286H0.571429L0 1.71429V15.4286L0.571429 16H15.4286L16 15.4286V1.71429L15.4286 1.14286ZM14.8571 14.8571H1.14286V4.57143H14.8571V14.8571ZM14.8571 3.42857H1.14286V2.28571H14.8571V3.42857ZM3.42857 8H2.28571V9.14286H3.42857V8ZM2.28571 10.2857H3.42857V11.4286H2.28571V10.2857ZM3.42857 12.5714H2.28571V13.7143H3.42857V12.5714ZM5.71429 8H6.85714V9.14286H5.71429V8ZM6.85714 10.2857H5.71429V11.4286H6.85714V10.2857ZM5.71429 12.5714H6.85714V13.7143H5.71429V12.5714ZM6.85714 5.71429H5.71429V6.85714H6.85714V5.71429ZM9.14286 8H10.2857V9.14286H9.14286V8ZM10.2857 10.2857H9.14286V11.4286H10.2857V10.2857ZM9.14286 12.5714H10.2857V13.7143H9.14286V12.5714ZM10.2857 5.71429H9.14286V6.85714H10.2857V5.71429ZM12.5714 8H13.7143V9.14286H12.5714V8ZM13.7143 10.2857H12.5714V11.4286H13.7143V10.2857ZM12.5714 5.71429H13.7143V6.85714H12.5714V5.71429Z" fill="#767676"/>
</svg>
