<svg width="55" height="61" viewBox="0 0 55 61" fill="none" xmlns="http://www.w3.org/2000/svg">
<path fill-rule="evenodd" clip-rule="evenodd" d="M15.3333 6.16658H39.6667V0.083252H45.75V6.16658H48.7917C50.4051 6.16658 51.9524 6.80751 53.0932 7.94835C54.2341 9.0892 54.875 10.6365 54.875 12.2499V54.8332C54.875 56.4466 54.2341 57.994 53.0932 59.1348C51.9524 60.2757 50.4051 60.9166 48.7917 60.9166H6.20833C4.59493 60.9166 3.04761 60.2757 1.90677 59.1348C0.765921 57.994 0.125 56.4466 0.125 54.8332V12.2499C0.125 10.6365 0.765921 9.0892 1.90677 7.94835C3.04761 6.80751 4.59493 6.16658 6.20833 6.16658H9.25V0.083252H15.3333V6.16658ZM6.20833 18.3333V54.8332H48.7917V18.3333H6.20833ZM12.2917 27.4583H18.375V33.5416H12.2917V27.4583ZM24.4583 27.4583H30.5417V33.5416H24.4583V27.4583ZM36.625 27.4583H42.7083V33.5416H36.625V27.4583ZM36.625 39.6249H42.7083V45.7082H36.625V39.6249ZM24.4583 39.6249H30.5417V45.7082H24.4583V39.6249ZM12.2917 39.6249H18.375V45.7082H12.2917V39.6249Z" fill="black"/>
</svg>
