<svg width="32" height="32" viewBox="0 0 32 32" fill="none" xmlns="http://www.w3.org/2000/svg">
<g filter="url(#filter0_d_342_271)">
<path d="M27.6614 8.1465L16.3527 0.165995C16.1979 0.0570324 16.0074 -0.00141179 15.8118 2.59042e-05C15.6161 0.0014636 15.4267 0.0627001 15.2738 0.173924L4.32681 8.15411C4.22469 8.2285 4.14228 8.32291 4.0857 8.43031C4.02912 8.53771 3.99983 8.65535 4 8.77449V23.2055C3.99995 23.3098 4.02247 23.4132 4.06627 23.5096C4.11007 23.606 4.17429 23.6936 4.25526 23.7674C4.33622 23.8412 4.43235 23.8997 4.53815 23.9396C4.64395 23.9795 4.75734 24 4.87185 24H11.3792C11.6104 23.9999 11.8321 23.9162 11.9956 23.7672C12.1591 23.6182 12.251 23.4162 12.2511 23.2055V14.3696H19.7479V23.2055C19.7479 23.4162 19.8398 23.6183 20.0033 23.7673C20.1668 23.9163 20.3885 24 20.6198 24H27.1282C27.3594 23.9999 27.5811 23.9162 27.7445 23.7672C27.908 23.6182 27.9999 23.4162 28 23.2055V8.77449C28 8.65318 27.9695 8.53349 27.9108 8.42461C27.8521 8.31574 27.7668 8.2206 27.6614 8.1465Z" fill="#626262"/>
</g>
<defs>
<filter id="filter0_d_342_271" x="0" y="0" width="32" height="32" filterUnits="userSpaceOnUse" color-interpolation-filters="sRGB">
<feFlood flood-opacity="0" result="BackgroundImageFix"/>
<feColorMatrix in="SourceAlpha" type="matrix" values="0 0 0 0 0 0 0 0 0 0 0 0 0 0 0 0 0 0 127 0" result="hardAlpha"/>
<feOffset dy="4"/>
<feGaussianBlur stdDeviation="2"/>
<feComposite in2="hardAlpha" operator="out"/>
<feColorMatrix type="matrix" values="0 0 0 0 0 0 0 0 0 0 0 0 0 0 0 0 0 0 0.25 0"/>
<feBlend mode="normal" in2="BackgroundImageFix" result="effect1_dropShadow_342_271"/>
<feBlend mode="normal" in="SourceGraphic" in2="effect1_dropShadow_342_271" result="shape"/>
</filter>
</defs>
</svg>
