<svg width="24" height="24" viewBox="0 0 24 24" fill="none" xmlns="http://www.w3.org/2000/svg">
<path d="M23.6614 8.1465L12.3527 0.165995C12.1979 0.0570324 12.0074 -0.00141179 11.8118 2.59042e-05C11.6161 0.0014636 11.4267 0.0627001 11.2738 0.173924L0.326813 8.15411C0.224694 8.2285 0.142284 8.32291 0.0857044 8.43031C0.029125 8.53771 -0.000168518 8.65535 7.29227e-07 8.77449V23.2055C-4.5009e-05 23.3098 0.0224749 23.4132 0.0662731 23.5096C0.110071 23.606 0.174289 23.6936 0.255257 23.7674C0.336225 23.8412 0.432355 23.8997 0.538153 23.9396C0.643951 23.9795 0.757343 24 0.871848 24H7.37921C7.61041 23.9999 7.83211 23.9162 7.9956 23.7672C8.15908 23.6182 8.25096 23.4162 8.25106 23.2055V14.3696H15.7479V23.2055C15.7479 23.4162 15.8398 23.6183 16.0033 23.7673C16.1668 23.9163 16.3885 24 16.6198 24H23.1282C23.3594 23.9999 23.5811 23.9162 23.7445 23.7672C23.908 23.6182 23.9999 23.4162 24 23.2055V8.77449C24 8.65318 23.9695 8.53349 23.9108 8.42461C23.8521 8.31574 23.7668 8.2206 23.6614 8.1465Z" fill="#626262"/>
</svg>
