<svg width="111" height="27" viewBox="0 0 111 27" fill="none" xmlns="http://www.w3.org/2000/svg">
<g filter="url(#filter0_d_275_2567)">
<path d="M4.73438 1.03125H7.875L13.2422 14.1797H13.4531L18.8203 1.03125H21.9609V18H19.5V5.74219H19.3359L14.3672 17.9766H12.3281L7.33594 5.71875H7.19531V18H4.73438V1.03125ZM40.1719 9.51562C40.1719 14.9414 36.9141 18.2344 32.5312 18.2344C28.1133 18.2344 24.8672 14.9297 24.8672 9.51562C24.8672 4.08984 28.1133 0.796875 32.5312 0.796875C36.9141 0.796875 40.1719 4.08984 40.1719 9.51562ZM27.4219 9.51562C27.4336 13.6406 29.6016 15.8789 32.5312 15.8672C35.4375 15.8789 37.6055 13.6406 37.6172 9.51562C37.6055 5.39062 35.4375 3.15234 32.5312 3.16406C29.6016 3.15234 27.4336 5.39062 27.4219 9.51562ZM43.6641 18H40.9219L47.0156 1.03125H49.9922L56.1094 18H53.3672L51.8203 13.5234H45.2109L43.6641 18ZM45.9492 11.3672H51.0703L48.5625 4.125H48.4453L45.9492 11.3672ZM58.2656 18V1.03125H64.3125C68.2617 1.03125 70.1953 3.22266 70.1953 6.35156C70.1953 8.63672 69.1641 10.3594 67.1016 11.1445L70.8516 18H67.9219L64.4766 11.6016H64.3125H60.8438V18H58.2656ZM60.8438 9.375H64.0547C66.5508 9.36328 67.5938 8.26172 67.5938 6.35156C67.5938 4.44141 66.5508 3.24609 64.0547 3.23438H60.8438V9.375ZM74.5078 18H71.7656L77.8594 1.03125H80.8359L86.9531 18H84.2109L82.6641 13.5234H76.0547L74.5078 18ZM76.793 11.3672H81.9141L79.4062 4.125H79.2891L76.793 11.3672ZM89.1094 1.03125H92.25L97.6172 14.1797H97.8281L103.195 1.03125H106.336V18H103.875V5.74219H103.711L98.7422 17.9766H96.7031L91.7109 5.71875H91.5703V18H89.1094V1.03125Z" fill="black"/>
</g>
<defs>
<filter id="filter0_d_275_2567" x="0.734375" y="0.796875" width="109.602" height="25.4375" filterUnits="userSpaceOnUse" color-interpolation-filters="sRGB">
<feFlood flood-opacity="0" result="BackgroundImageFix"/>
<feColorMatrix in="SourceAlpha" type="matrix" values="0 0 0 0 0 0 0 0 0 0 0 0 0 0 0 0 0 0 127 0" result="hardAlpha"/>
<feOffset dy="4"/>
<feGaussianBlur stdDeviation="2"/>
<feComposite in2="hardAlpha" operator="out"/>
<feColorMatrix type="matrix" values="0 0 0 0 0 0 0 0 0 0 0 0 0 0 0 0 0 0 0.25 0"/>
<feBlend mode="normal" in2="BackgroundImageFix" result="effect1_dropShadow_275_2567"/>
<feBlend mode="normal" in="SourceGraphic" in2="effect1_dropShadow_275_2567" result="shape"/>
</filter>
</defs>
</svg>
