<svg width="103" height="19" viewBox="0 0 103 19" fill="none" xmlns="http://www.w3.org/2000/svg">
<path d="M0.734375 1.03125H3.875L9.24219 14.1797H9.45312L14.8203 1.03125H17.9609V18H15.5V5.74219H15.3359L10.3672 17.9766H8.32812L3.33594 5.71875H3.19531V18H0.734375V1.03125ZM36.1719 9.51562C36.1719 14.9414 32.9141 18.2344 28.5312 18.2344C24.1133 18.2344 20.8672 14.9297 20.8672 9.51562C20.8672 4.08984 24.1133 0.796875 28.5312 0.796875C32.9141 0.796875 36.1719 4.08984 36.1719 9.51562ZM23.4219 9.51562C23.4336 13.6406 25.6016 15.8789 28.5312 15.8672C31.4375 15.8789 33.6055 13.6406 33.6172 9.51562C33.6055 5.39062 31.4375 3.15234 28.5312 3.16406C25.6016 3.15234 23.4336 5.39062 23.4219 9.51562ZM39.6641 18H36.9219L43.0156 1.03125H45.9922L52.1094 18H49.3672L47.8203 13.5234H41.2109L39.6641 18ZM41.9492 11.3672H47.0703L44.5625 4.125H44.4453L41.9492 11.3672ZM54.2656 18V1.03125H60.3125C64.2617 1.03125 66.1953 3.22266 66.1953 6.35156C66.1953 8.63672 65.1641 10.3594 63.1016 11.1445L66.8516 18H63.9219L60.4766 11.6016H60.3125H56.8438V18H54.2656ZM56.8438 9.375H60.0547C62.5508 9.36328 63.5938 8.26172 63.5938 6.35156C63.5938 4.44141 62.5508 3.24609 60.0547 3.23438H56.8438V9.375ZM70.5078 18H67.7656L73.8594 1.03125H76.8359L82.9531 18H80.2109L78.6641 13.5234H72.0547L70.5078 18ZM72.793 11.3672H77.9141L75.4062 4.125H75.2891L72.793 11.3672ZM85.1094 1.03125H88.25L93.6172 14.1797H93.8281L99.1953 1.03125H102.336V18H99.875V5.74219H99.7109L94.7422 17.9766H92.7031L87.7109 5.71875H87.5703V18H85.1094V1.03125Z" fill="black"/>
</svg>
