<svg width="17" height="17" viewBox="0 0 17 17" fill="none" xmlns="http://www.w3.org/2000/svg">
<g clip-path="url(#clip0_275_4247)">
<path d="M12.3958 7.79138C12.9826 7.79138 13.4583 7.31568 13.4583 6.72888C13.4583 6.14208 12.9826 5.66638 12.3958 5.66638C11.8089 5.66638 11.3333 6.14208 11.3333 6.72888C11.3333 7.31568 11.8089 7.79138 12.3958 7.79138Z" fill="#374957"/>
<path d="M8.85376 5.66638C9.44056 5.66638 9.91626 5.19068 9.91626 4.60388C9.91626 4.01708 9.44056 3.54138 8.85376 3.54138C8.26696 3.54138 7.79126 4.01708 7.79126 4.60388C7.79126 5.19068 8.26696 5.66638 8.85376 5.66638Z" fill="#374957"/>
<path d="M5.3125 7.79138C5.8993 7.79138 6.375 7.31568 6.375 6.72888C6.375 6.14208 5.8993 5.66638 5.3125 5.66638C4.7257 5.66638 4.25 6.14208 4.25 6.72888C4.25 7.31568 4.7257 7.79138 5.3125 7.79138Z" fill="#374957"/>
<path d="M5.3125 12.0414C5.8993 12.0414 6.375 11.5657 6.375 10.9789C6.375 10.3921 5.8993 9.91638 5.3125 9.91638C4.7257 9.91638 4.25 10.3921 4.25 10.9789C4.25 11.5657 4.7257 12.0414 5.3125 12.0414Z" fill="#374957"/>
<path d="M8.55856 16.9999C6.86512 16.9997 5.21032 16.4938 3.80636 15.5468C2.40241 14.5999 1.3133 13.2552 0.67871 11.6852C0.0441159 10.1151 -0.10704 8.39129 0.244626 6.73476C0.596292 5.07824 1.43475 3.56451 2.65248 2.38769C3.47047 1.59062 4.44209 0.96832 5.50822 0.558674C6.57434 0.149028 7.71268 -0.0393994 8.85394 0.00485865C11.0106 0.105522 13.0508 1.01281 14.57 2.54688C16.0893 4.08095 16.9767 6.12983 17.0564 8.2874C17.0853 9.38768 16.8988 10.483 16.5075 11.5117C16.4278 11.7213 16.2967 11.9075 16.1263 12.0532C15.9559 12.1989 15.7515 12.2994 15.5321 12.3454C15.3091 12.3946 15.0772 12.3865 14.8581 12.322C14.6391 12.2575 14.4399 12.1386 14.2791 11.9764L14.2082 11.9056C13.8536 11.5509 13.4014 11.3099 12.9092 11.2131C12.4171 11.1163 11.9073 11.1682 11.4448 11.3621C10.9822 11.5561 10.5878 11.8833 10.3119 12.3021C10.0359 12.7209 9.89088 13.2124 9.89519 13.7139L9.92352 16.9128L9.26902 16.9673C9.03314 16.9843 8.79798 16.9999 8.55856 16.9999ZM8.55856 1.41657C6.67994 1.40811 4.87491 2.14628 3.54055 3.46869C2.20619 4.79109 1.45181 6.58941 1.44335 8.46803C1.4349 10.3466 2.17307 12.1517 3.49547 13.486C4.81788 14.8204 6.61619 15.5748 8.49481 15.5832L8.47781 13.7239C8.4746 13.2004 8.57503 12.6815 8.77332 12.197C8.9716 11.7126 9.26381 11.2721 9.6331 10.9012C10.3729 10.1624 11.3756 9.74739 12.4211 9.74739C13.4666 9.74739 14.4693 10.1624 15.2091 10.9012L15.219 10.9111C15.5212 10.0823 15.6642 9.20393 15.6405 8.32211C15.5743 6.52474 14.8353 4.81783 13.5699 3.53963C12.3046 2.26142 10.6052 1.5052 8.8086 1.42082C8.72431 1.41657 8.64144 1.41657 8.55785 1.41657H8.55856Z" fill="#374957"/>
</g>
<defs>
<clipPath id="clip0_275_4247">
<rect width="17" height="17" fill="white"/>
</clipPath>
</defs>
</svg>
