<svg width="52" height="52" viewBox="0 0 52 52" fill="none" xmlns="http://www.w3.org/2000/svg">
<path fill-rule="evenodd" clip-rule="evenodd" d="M24.375 3.25C18.7723 3.25 13.3991 5.47566 9.43737 9.43737C5.47566 13.3991 3.25 18.7723 3.25 24.375C3.25 29.9777 5.47566 35.3509 9.43737 39.3126C13.3991 43.2743 18.7723 45.5 24.375 45.5C29.9777 45.5 35.3509 43.2743 39.3126 39.3126C43.2743 35.3509 45.5 29.9777 45.5 24.375C45.5 18.7723 43.2743 13.3991 39.3126 9.43737C35.3509 5.47566 29.9777 3.25 24.375 3.25ZM24.375 42.25C19.6343 42.25 15.0877 40.3667 11.7355 37.0145C8.38325 33.6623 6.5 29.1157 6.5 24.375C6.5 19.6343 8.38325 15.0877 11.7355 11.7355C15.0877 8.38325 19.6343 6.5 24.375 6.5C29.1157 6.5 33.6623 8.38325 37.0145 11.7355C40.3667 15.0877 42.25 19.6343 42.25 24.375C42.25 29.1157 40.3667 33.6623 37.0145 37.0145C33.6623 40.3667 29.1157 42.25 24.375 42.25ZM29.4125 14.885C28.8534 14.2975 28.1783 13.8327 27.43 13.52C26.4908 13.1439 25.4837 12.9669 24.4725 13C23.4914 12.986 22.5178 13.174 21.6125 13.5525C20.8358 13.8775 20.15 14.378 19.5975 15.015C19.0599 15.6009 18.6406 16.2851 18.3625 17.03C18.1046 17.7871 17.9409 18.573 17.875 19.37H21.8725C21.8909 18.8542 22.0552 18.3541 22.3463 17.9279C22.6373 17.5017 23.0433 17.1667 23.517 16.9618C23.8304 16.836 24.1679 16.7816 24.505 16.8025C24.7958 16.7584 25.0917 16.7584 25.3825 16.8025C25.6513 16.8999 25.8954 17.0552 26.0975 17.2575C26.3233 17.4529 26.5012 17.6975 26.6175 17.9725C26.7536 18.2791 26.8202 18.6121 26.8125 18.9475C26.8125 19.5098 26.6923 20.0623 26.455 20.5725C26.219 21.1019 25.9246 21.6033 25.5775 22.0675L24.44 23.4325C24.05 23.855 23.66 24.31 23.3025 24.765C22.9552 25.2174 22.6607 25.7081 22.425 26.2275C22.2015 26.7396 22.0907 27.2938 22.1 27.8525V29.9975H26V28.405C26.011 27.9283 26.1334 27.4609 26.3575 27.04C26.6235 26.5715 26.9279 26.1258 27.2675 25.7075L28.4375 24.2775C28.866 23.7875 29.2571 23.2661 29.6075 22.7175C29.9807 22.1599 30.2862 21.5598 30.5175 20.93C30.7551 20.2623 30.8761 19.5587 30.875 18.85C30.8797 18.1117 30.7701 17.3772 30.55 16.6725C30.3065 16.0005 29.9181 15.3902 29.4125 14.885ZM22.1 31.9475H25.9025V35.75H22.1V31.9475Z" fill="#767676"/>
</svg>
