<svg width="22" height="22" viewBox="0 0 22 22" fill="none" xmlns="http://www.w3.org/2000/svg">
<path d="M18.2416 11.6049C18.0947 11.4377 18.0136 11.2226 18.0136 10.9999C18.0136 10.7773 18.0947 10.5622 18.2416 10.3949L19.4149 9.07494C19.5442 8.93072 19.6245 8.74926 19.6443 8.55658C19.664 8.3639 19.6223 8.16991 19.5249 8.00244L17.6916 4.83078C17.5953 4.66351 17.4486 4.53092 17.2725 4.45191C17.0963 4.3729 16.8998 4.35151 16.7108 4.39078L14.9874 4.73911C14.7682 4.78442 14.5399 4.7479 14.3457 4.63644C14.1515 4.52499 14.0048 4.3463 13.9333 4.13411L13.3741 2.45661C13.3126 2.27454 13.1955 2.1164 13.0392 2.00455C12.8829 1.8927 12.6955 1.83278 12.5033 1.83328H8.83661C8.63672 1.82284 8.4389 1.87813 8.27338 1.99068C8.10786 2.10324 7.98373 2.26688 7.91995 2.45661L7.40661 4.13411C7.33511 4.3463 7.18842 4.52499 6.99422 4.63644C6.80001 4.7479 6.57173 4.78442 6.35245 4.73911L4.58328 4.39078C4.40412 4.36546 4.22147 4.39373 4.05835 4.47203C3.89522 4.55033 3.75892 4.67515 3.66661 4.83078L1.83328 8.00244C1.73351 8.16804 1.68865 8.36094 1.70511 8.55357C1.72158 8.74619 1.79852 8.92868 1.92495 9.07494L3.08911 10.3949C3.23607 10.5622 3.31712 10.7773 3.31712 10.9999C3.31712 11.2226 3.23607 11.4377 3.08911 11.6049L1.92495 12.9249C1.79852 13.0712 1.72158 13.2537 1.70511 13.4463C1.68865 13.6389 1.73351 13.8319 1.83328 13.9974L3.66661 17.1691C3.76295 17.3364 3.90964 17.469 4.08576 17.548C4.26188 17.627 4.45845 17.6484 4.64745 17.6091L6.37078 17.2608C6.59006 17.2155 6.81834 17.252 7.01255 17.3634C7.20675 17.4749 7.35345 17.6536 7.42495 17.8658L7.98411 19.5433C8.04789 19.733 8.17202 19.8967 8.33755 20.0092C8.50307 20.1218 8.70088 20.177 8.90078 20.1666H12.5674C12.7596 20.1671 12.9471 20.1072 13.1034 19.9953C13.2596 19.8835 13.3768 19.7253 13.4383 19.5433L13.9974 17.8658C14.0689 17.6536 14.2156 17.4749 14.4098 17.3634C14.604 17.252 14.8323 17.2155 15.0516 17.2608L16.7749 17.6091C16.9639 17.6484 17.1605 17.627 17.3366 17.548C17.5128 17.469 17.6594 17.3364 17.7558 17.1691L19.5891 13.9974C19.6864 13.83 19.7282 13.636 19.7085 13.4433C19.6887 13.2506 19.6084 13.0692 19.4791 12.9249L18.2416 11.6049ZM16.8758 12.8333L17.6091 13.6583L16.4358 15.6933L15.3541 15.4733C14.6939 15.3383 14.0071 15.4505 13.4242 15.7884C12.8412 16.1264 12.4026 16.6666 12.1916 17.3066L11.8433 18.3333H9.49661L9.16661 17.2883C8.95565 16.6483 8.51705 16.1081 7.93407 15.7701C7.35109 15.4321 6.66431 15.32 6.00411 15.4549L4.92245 15.6749L3.73078 13.6491L4.46411 12.8241C4.91507 12.3199 5.16438 11.6672 5.16438 10.9908C5.16438 10.3143 4.91507 9.66163 4.46411 9.15744L3.73078 8.33244L4.90411 6.31578L5.98578 6.53578C6.64598 6.67073 7.33275 6.55859 7.91573 6.22063C8.49871 5.88267 8.93731 5.34242 9.14828 4.70244L9.49661 3.66661H11.8433L12.1916 4.71161C12.4026 5.35159 12.8412 5.89183 13.4242 6.22979C14.0071 6.56775 14.6939 6.6799 15.3541 6.54494L16.4358 6.32494L17.6091 8.35994L16.8758 9.18495C16.4299 9.68797 16.1837 10.3369 16.1837 11.0091C16.1837 11.6813 16.4299 12.3302 16.8758 12.8333ZM10.6699 7.33328C9.94475 7.33328 9.23583 7.54832 8.63285 7.95122C8.02987 8.35412 7.55991 8.92678 7.28239 9.59677C7.00487 10.2668 6.93225 11.004 7.07373 11.7153C7.21521 12.4265 7.56443 13.0799 8.07722 13.5927C8.59001 14.1055 9.24335 14.4547 9.95461 14.5962C10.6659 14.7376 11.4031 14.665 12.0731 14.3875C12.7431 14.11 13.3158 13.64 13.7187 13.037C14.1216 12.4341 14.3366 11.7251 14.3366 10.9999C14.3366 10.0275 13.9503 9.09485 13.2627 8.40722C12.575 7.71959 11.6424 7.33328 10.6699 7.33328ZM10.6699 12.8333C10.3073 12.8333 9.95289 12.7258 9.6514 12.5243C9.34991 12.3229 9.11493 12.0365 8.97617 11.7015C8.83741 11.3665 8.8011 10.9979 8.87184 10.6423C8.94258 10.2866 9.11719 9.95998 9.37358 9.70358C9.62998 9.44719 9.95665 9.27258 10.3123 9.20184C10.6679 9.1311 11.0365 9.1674 11.3715 9.30617C11.7065 9.44493 11.9929 9.67991 12.1943 9.9814C12.3958 10.2829 12.5033 10.6373 12.5033 10.9999C12.5033 11.4862 12.3101 11.9525 11.9663 12.2963C11.6225 12.6401 11.1562 12.8333 10.6699 12.8333Z" fill="black"/>
</svg>
