<svg width="22" height="22" viewBox="0 0 22 22" fill="none" xmlns="http://www.w3.org/2000/svg">
<g clip-path="url(#clip0_275_4245)">
<path d="M19.3808 14.2122L13.4028 19.7117C13.0643 20.023 12.5924 20.1617 12.0901 20.0974C11.5878 20.033 11.0958 19.7709 10.7217 19.3683L3.44652 11.4601L5.12406 4.71373L11.9866 3.60361L19.2637 11.5139C19.633 11.9203 19.8525 12.432 19.8745 12.9375C19.8964 13.4429 19.719 13.9011 19.3808 14.2122ZM4.84984 11.2715L11.5757 18.5827C11.7004 18.7169 11.8644 18.8043 12.0319 18.8257C12.1993 18.8471 12.3566 18.8009 12.4694 18.6972L18.4475 13.1976C18.5603 13.0938 18.6194 12.9409 18.612 12.7723C18.6046 12.6036 18.5312 12.433 18.4078 12.2975L11.6819 4.98636L6.19168 5.87425L4.84984 11.2715Z" fill="#374957"/>
<path d="M9.14858 9.08852C9.50232 8.76309 9.47379 8.15655 9.08486 7.73377C8.69592 7.31099 8.09386 7.23207 7.74012 7.55749C7.38637 7.88292 7.4149 8.48946 7.80384 8.91224C8.19278 9.33502 8.79484 9.41394 9.14858 9.08852Z" fill="#374957"/>
</g>
<defs>
<clipPath id="clip0_275_4245">
<rect width="13.925" height="16.6427" fill="white" transform="translate(0 9.42773) rotate(-42.6125)"/>
</clipPath>
</defs>
</svg>
